# Blender 4.1.0
# www.blender.org
mtllib krista_sword.mtl
g KristaSword_Cube.001
v -0.079661 2.326734 0.009435
v 0.046216 2.472004 0.031464
v -0.079661 2.326734 -0.009446
v 0.046216 2.472004 -0.031475
v -0.079661 1.462030 0.009435
v 0.046216 1.462030 0.031464
v -0.079661 1.462030 -0.009446
v 0.046216 1.462030 -0.031475
v -0.079661 2.326734 -0.009446
v -0.079661 2.326734 0.009435
v 0.046216 2.472004 0.031464
v 0.046216 2.472004 -0.031475
v -0.031934 1.260999 0.025963
v 0.047151 1.260999 0.025963
v -0.031934 1.260999 -0.025962
v 0.047151 1.260999 -0.025962
v -0.031934 0.917259 0.025963
v 0.047151 0.917259 0.025963
v -0.031934 0.917259 -0.025962
v 0.047151 0.917259 -0.025962
v -0.016813 1.724565 0.039337
v 0.061698 1.724565 0.039337
v -0.016813 1.724565 -0.039336
v 0.061698 1.724565 -0.039336
v -0.016813 1.664047 0.039337
v 0.061698 1.664047 0.039337
v -0.016813 1.664047 -0.039336
v 0.061698 1.664047 -0.039336
v 0.061860 1.343303 0.051138
v 0.140533 1.343303 0.051138
v 0.061860 1.343303 -0.051137
v 0.140533 1.343303 -0.051137
v 0.061860 1.240423 0.051138
v 0.140533 1.240423 0.051138
v 0.061860 1.240423 -0.051137
v 0.140533 1.240423 -0.051137
v -0.174158 1.300941 0.051138
v -0.095485 1.331618 0.051138
v -0.174158 1.300941 -0.051137
v -0.095485 1.331618 -0.051137
v -0.174158 1.240423 0.051138
v -0.095485 1.240423 0.051138
v -0.174158 1.240423 -0.051137
v -0.095485 1.240423 -0.051137
v -0.095485 1.300941 0.051138
v -0.016812 1.300941 0.051138
v -0.095485 1.300941 -0.051137
v -0.016812 1.300941 -0.051137
v -0.095485 1.240423 0.051138
v -0.016812 1.240423 0.051138
v -0.095485 1.240423 -0.051137
v -0.016812 1.240423 -0.051137
v -0.095485 1.361459 0.051138
v -0.016813 1.361459 0.051138
v -0.095485 1.361459 -0.051137
v -0.016812 1.361459 -0.051137
v -0.095485 1.300941 0.051138
v -0.016812 1.300941 0.051138
v -0.095485 1.300941 -0.051137
v -0.016812 1.300941 -0.051137
v -0.095485 1.421976 0.051138
v -0.016813 1.421976 0.051138
v -0.095485 1.421976 -0.051137
v -0.016812 1.421976 -0.051137
v -0.095485 1.361459 0.051138
v -0.016813 1.361459 0.051138
v -0.095485 1.361459 -0.051137
v -0.016812 1.361459 -0.051137
v -0.016813 1.300941 0.051138
v 0.061860 1.300941 0.051138
v -0.016812 1.300941 -0.051137
v 0.061860 1.300941 -0.051137
v -0.016813 1.240423 0.051138
v 0.061860 1.240423 0.051138
v -0.016812 1.240423 -0.051137
v 0.061860 1.240423 -0.051137
v -0.016813 1.361459 0.051138
v 0.061860 1.361459 0.051138
v -0.016813 1.361459 -0.051137
v 0.061860 1.361459 -0.051137
v -0.016813 1.300941 0.051138
v 0.061860 1.300941 0.051138
v -0.016812 1.300941 -0.051137
v 0.061860 1.300941 -0.051137
v 0.061860 1.403821 0.051138
v 0.101197 1.373562 0.051138
v 0.061860 1.403821 -0.051137
v 0.101197 1.373562 -0.051137
v 0.061860 1.343303 0.051138
v 0.140533 1.343303 0.051138
v 0.061860 1.343303 -0.051137
v 0.140533 1.343303 -0.051137
v -0.016813 1.421976 0.051138
v 0.061860 1.421976 0.051138
v -0.016813 1.421976 -0.051137
v 0.061860 1.421976 -0.051137
v -0.016813 1.361459 0.051138
v 0.061860 1.361459 0.051138
v -0.016813 1.361459 -0.051137
v 0.061860 1.361459 -0.051137
v -0.094673 1.482494 0.039337
v -0.016813 1.482494 0.039337
v -0.094673 1.482494 -0.039336
v -0.016813 1.482494 -0.039336
v -0.094673 1.216216 0.039337
v -0.016812 1.216216 0.039337
v -0.094673 1.216216 -0.039336
v -0.016812 1.216216 -0.039336
v -0.016813 1.482494 0.039337
v 0.061698 1.482494 0.039337
v -0.016813 1.482494 -0.039336
v 0.061698 1.482494 -0.039336
v -0.016813 1.216216 0.039337
v 0.061698 1.216216 0.039337
v -0.016812 1.216216 -0.039336
v 0.061698 1.216216 -0.039336
v -0.016813 1.543012 0.039337
v 0.061698 1.543012 0.039337
v -0.016813 1.543012 -0.039336
v 0.061698 1.543012 -0.039336
v -0.016813 1.482494 0.039337
v 0.061698 1.482494 0.039337
v -0.016813 1.482494 -0.039336
v 0.061698 1.482494 -0.039336
v -0.016813 1.603529 0.039337
v 0.061698 1.603529 0.039337
v -0.016813 1.603529 -0.039336
v 0.061698 1.603529 -0.039336
v -0.016813 1.543012 0.039337
v 0.061698 1.543012 0.039337
v -0.016813 1.543012 -0.039336
v 0.061698 1.543012 -0.039336
v -0.016813 1.664047 0.039337
v 0.061698 1.664047 0.039337
v -0.016813 1.664047 -0.039336
v 0.061698 1.664047 -0.039336
v -0.016813 1.603529 0.039337
v 0.061698 1.603529 0.039337
v -0.016813 1.603529 -0.039336
v 0.061698 1.603529 -0.039336
vn 1.0000 -0.0000 -0.0000
vn -0.1724 -0.0000 -0.9850
vn -0.0000 -1.0000 -0.0000
vn -0.1724 -0.0000 0.9850
vn -1.0000 -0.0000 -0.0000
vn -0.7558 0.6549 -0.0000
vn -0.0000 -0.0000 -1.0000
vn -0.0000 -0.0000 1.0000
vn -0.0000 1.0000 -0.0000
vn -0.3633 0.9317 -0.0000
vn 0.6097 0.7926 -0.0000
vt 0.000000 0.000000
vt 0.395099 0.483595
vt 0.424009 0.995954
vt 0.223018 0.995954
vt 0.223018 0.483595
vt 0.223018 0.169258
vt 0.446035 0.000000
vt 0.446035 0.483595
vt 0.223018 0.314336
vt 0.000000 1.000000
vt 0.000000 0.487641
vt 0.200991 0.487641
vt 0.172082 1.000000
vt 0.446035 0.373144
vt 0.446035 0.000000
vt 0.512941 0.000000
vt 0.512941 0.373144
vt 0.625000 0.967189
vt 0.424009 0.967189
vt 0.424009 0.483595
vt 0.625000 0.483595
vt 0.144961 0.000000
vt 0.223018 0.487641
vt 0.000000 0.487641
vt 0.078056 0.000000
vt 0.031250 0.949219
vt 0.039062 0.949219
vt 0.039062 0.984375
vt 0.031250 0.984375
vt 0.023438 0.960938
vt 0.015625 0.960938
vt 0.015625 0.953125
vt 0.023438 0.953125
vt 0.035156 0.960938
vt 0.035156 0.953125
vt 0.070312 0.953125
vt 0.070312 0.960938
vt 0.019531 0.992188
vt 0.019531 0.957031
vt 0.027344 0.957031
vt 0.027344 0.992188
vt 0.023438 0.988281
vt 0.015625 0.988281
vt 0.035156 0.972656
vt 0.027344 0.972656
vt 0.027344 0.964844
vt 0.035156 0.964844
vt 0.054688 0.968750
vt 0.054688 0.976562
vt 0.046875 0.976562
vt 0.046875 0.968750
vt 0.035156 0.976562
vt 0.035156 0.984375
vt 0.027344 0.984375
vt 0.027344 0.976562
vt 0.007812 0.964844
vt 0.015625 0.964844
vt 0.015625 0.972656
vt 0.007812 0.972656
vt 0.046875 0.972656
vt 0.039062 0.972656
vt 0.039062 0.964844
vt 0.046875 0.964844
vt 0.027344 0.949219
vt 0.019531 0.949219
vt 0.019531 0.941406
vt 0.027344 0.941406
vt 0.031250 0.972656
vt 0.031250 0.964844
vt 0.023438 0.968750
vt 0.031250 0.968750
vt 0.031250 0.976562
vt 0.023438 0.976562
vt 0.035156 0.968750
vt 0.027344 0.968750
vt 0.027344 0.960938
vt 0.029811 0.957031
vt 0.035156 0.957031
vt 0.029897 0.957096
vt 0.027166 0.957213
vt 0.030542 0.957213
vt 0.039062 0.968750
vt 0.035156 0.941406
vt 0.035156 0.949219
vt 0.042969 0.964844
vt 0.042969 0.972656
vt 0.015625 0.968750
vt 0.019531 0.968750
vt 0.019531 0.972656
vt 0.020414 0.961602
vt 0.020414 0.965991
vt 0.023438 0.972656
vt 0.042969 0.949219
vt 0.042969 0.941406
vt 0.039062 0.980469
vt 0.042969 0.980469
vt 0.023438 0.964844
vt 0.020414 0.970380
vt 0.019531 0.964844
vt 0.023790 0.970380
vt 0.035156 0.980469
vt 0.027344 0.980469
vt 0.050781 0.941406
vt 0.050781 0.949219
vt 0.066406 0.953125
vt 0.066406 0.960938
vt 0.016926 0.960938
vt 0.037761 0.960938
vt 0.037761 0.968750
vt 0.016926 0.968750
vt 0.042969 0.976562
vt 0.042969 0.984375
vt 0.011719 0.984375
vt 0.011719 0.976562
vt 0.066406 0.968750
vt 0.066406 0.976562
vt 0.034483 0.992188
vt 0.008485 0.992188
vt 0.008485 0.984375
vt 0.034483 0.984375
vt 0.039062 0.976562
vt 0.058594 0.976562
vt 0.058594 0.984375
vt 0.050781 0.984375
vt 0.050781 0.976562
vt 0.054688 0.964844
vt 0.054688 0.972656
vt 0.070312 0.972656
vt 0.062500 0.972656
vt 0.062500 0.964844
vt 0.070312 0.964844
s 0
g KristaSword_EnergyBlade.Krista
usemtl EnergyBlade.Krista
f 4/1/1 3/1/1 9/1/1 12/1/1
f 3/2/2 4/3/2 8/4/2 7/5/2
f 7/6/3 8/7/3 6/8/3 5/9/3
f 5/10/4 6/11/4 2/12/4 1/13/4
f 3/14/5 7/15/5 5/16/5 1/17/5
f 8/18/1 4/19/1 2/20/1 6/21/1
f 10/22/6 11/23/6 12/24/6 9/25/6
f 2/1/1 4/1/1 12/1/1 11/1/1
g KristaSword_Terrain
usemtl Terrain
f 15/26/7 16/27/7 20/28/7 19/29/7
f 19/30/3 20/31/3 18/32/3 17/33/3
f 17/34/8 18/35/8 14/36/8 13/37/8
f 15/38/5 19/39/5 17/40/5 13/41/5
f 20/33/1 16/42/1 14/43/1 18/32/1
g KristaSword_Terrain.001
usemtl Terrain.001
f 31/46/7 32/45/7 36/44/7 35/47/7
f 35/64/3 36/65/3 34/66/3 33/67/3
f 33/62/8 34/61/8 30/68/8 29/69/8
f 36/70/1 32/71/1 30/72/1 34/73/1
f 37/74/10 38/75/10 40/76/10 39/34/10
f 39/77/7 40/46/7 44/47/7 43/78/7
f 43/74/3 44/75/3 42/76/3 41/34/3
f 41/78/8 42/47/8 38/46/8 37/79/8
f 39/80/5 43/81/5 41/81/5 37/80/5
f 47/44/7 48/74/7 52/82/7 51/61/7
f 51/67/3 52/83/3 50/84/3 49/64/3
f 49/61/8 50/62/8 46/85/8 45/86/8
f 55/58/7 56/87/7 60/88/7 59/89/7
f 57/45/8 58/46/8 54/69/8 53/68/8
f 55/46/5 59/69/5 57/68/5 53/45/5
f 61/90/9 62/91/9 64/91/9 63/90/9
f 63/89/7 64/88/7 68/70/7 67/92/7
f 65/68/8 66/69/8 62/47/8 61/44/8
f 63/69/5 67/47/5 65/44/5 61/68/5
f 71/74/7 72/44/7 76/68/7 75/71/7
f 75/93/3 76/84/3 74/83/3 73/94/3
f 73/95/8 74/61/8 70/86/8 69/96/8
f 79/92/7 80/70/7 84/75/7 83/45/7
f 81/92/8 82/97/8 78/46/8 77/45/8
f 85/74/11 86/44/11 88/45/11 87/75/11
f 87/70/7 88/45/7 92/45/7 91/75/7
f 89/75/8 90/45/8 86/92/8 85/70/8
f 92/55/11 88/45/11 86/44/11 90/52/11
f 93/91/9 94/98/9 96/98/9 95/91/9
f 95/45/7 96/75/7 100/71/7 99/68/7
f 97/89/8 98/99/8 94/97/8 93/92/8
f 100/100/1 96/98/1 94/98/1 98/100/1
g KristaSword_Terrain.002
usemtl Terrain.002
f 21/44/9 22/45/9 24/46/9 23/47/9
f 23/48/7 24/49/7 28/50/7 27/51/7
f 25/52/8 26/53/8 22/54/8 21/55/8
f 23/56/5 27/57/5 25/58/5 21/59/5
f 28/60/1 24/61/1 22/62/1 26/63/1
f 101/101/9 102/102/9 104/45/9 103/44/9
f 103/65/7 104/66/7 108/103/7 107/104/7
f 107/96/3 108/101/3 106/44/3 105/86/3
f 105/105/8 106/106/8 102/34/8 101/35/8
f 103/107/5 107/108/5 105/109/5 101/110/5
f 111/111/7 112/112/7 116/113/7 115/114/7
f 115/86/3 116/44/3 114/47/3 113/85/3
f 113/115/8 114/116/8 110/52/8 109/74/8
f 116/117/1 112/118/1 110/119/1 114/120/1
f 119/51/7 120/50/7 124/121/7 123/82/7
f 121/122/8 122/123/8 118/124/8 117/125/8
f 119/63/5 123/126/5 121/127/5 117/60/5
f 124/68/1 120/92/1 118/97/1 122/69/1
f 127/82/7 128/121/7 132/72/7 131/71/7
f 129/125/8 130/124/8 126/112/8 125/111/8
f 127/92/5 131/58/5 129/57/5 125/97/5
f 132/128/1 128/129/1 126/130/1 130/131/1
f 135/71/7 136/72/7 140/73/7 139/70/7
f 137/111/8 138/112/8 134/53/8 133/52/8
f 135/126/5 139/130/5 137/129/5 133/127/5
f 140/61/1 136/68/1 134/69/1 138/62/1
